<svg xmlns="http://www.w3.org/2000/svg" viewBox="0 0 300 380" width="180" height="228" role="img">
<title>commit-pet (hatchling, healthy)</title>
<defs><linearGradient id="furGrad-hatchling-healthy" x1="0%" y1="0%" x2="0%" y2="100%"><stop offset="0%" stop-color="#FF9333"/><stop offset="100%" stop-color="#D85C00"/></linearGradient>
<linearGradient id="bellyGrad-hatchling-healthy" x1="0%" y1="0%" x2="0%" y2="100%"><stop offset="0%" stop-color="#FFFFFF"/><stop offset="100%" stop-color="#FCE6CA"/></linearGradient>
<linearGradient id="earDark-hatchling-healthy" x1="0%" y1="0%" x2="0%" y2="100%"><stop offset="0%" stop-color="#332A24"/><stop offset="100%" stop-color="#1A1512"/></linearGradient>
<filter id="softShadow-hatchling-healthy" x="-20%" y="-20%" width="140%" height="140%"><feDropShadow dx="0" dy="6" stdDeviation="5" flood-color="#7A2D00" flood-opacity="0.3"/></filter>
<filter id="groundShadow-hatchling-healthy" x="-20%" y="-20%" width="140%" height="140%"><feDropShadow dx="0" dy="0" stdDeviation="8" flood-color="#000000" flood-opacity="0.5"/></filter><path id="tailShapeBaby-hatchling-healthy" d="M 165 260 C 215 295, 245 240, 195 210 C 185 220, 175 240, 165 260 Z" />
<clipPath id="tailClipBaby-hatchling-healthy"><use href="#tailShapeBaby-hatchling-healthy" /></clipPath></defs>
<ellipse cx="150" cy="325" rx="42" ry="7" fill="#111115" filter="url(#groundShadow-hatchling-healthy)" />
<g filter="url(#softShadow-hatchling-healthy)">
<use href="#tailShapeBaby-hatchling-healthy" fill="url(#furGrad-hatchling-healthy)" />
<path d="M 175 215 Q 190 220 185 235 Q 200 225 195 245 Q 215 235 220 255 L 260 255 L 260 180 L 175 180 Z" fill="url(#bellyGrad-hatchling-healthy)" clip-path="url(#tailClipBaby-hatchling-healthy)" />
</g>
<g>
<path d="M 100 130 C 80 90, 95 75, 110 85 C 120 95, 125 105, 130 115 Z" fill="url(#furGrad-hatchling-healthy)" />
<path d="M 105 120 C 92 100, 102 93, 110 100 Z" fill="url(#earDark-hatchling-healthy)" />
<path d="M 200 130 C 220 90, 205 75, 190 85 C 180 95, 175 105, 170 115 Z" fill="url(#furGrad-hatchling-healthy)" />
<path d="M 195 120 C 208 100, 198 93, 190 100 Z" fill="url(#earDark-hatchling-healthy)" />
</g>
<g>
<ellipse cx="125" cy="305" rx="12" ry="16" fill="url(#furGrad-hatchling-healthy)" />
<ellipse cx="175" cy="305" rx="12" ry="16" fill="url(#furGrad-hatchling-healthy)" />
</g>
<g>
<circle cx="150" cy="260" r="45" fill="url(#furGrad-hatchling-healthy)" />
<ellipse cx="150" cy="265" rx="28" ry="34" fill="url(#bellyGrad-hatchling-healthy)" />
</g>
<g filter="url(#softShadow-hatchling-healthy)">
<path d="M 118 240 C 105 260, 110 275, 122 282" fill="none" stroke="url(#furGrad-hatchling-healthy)" stroke-width="14" stroke-linecap="round" />
<circle cx="122" cy="282" r="8" fill="url(#bellyGrad-hatchling-healthy)" />
<path d="M 182 240 C 195 260, 190 275, 178 282" fill="none" stroke="url(#furGrad-hatchling-healthy)" stroke-width="14" stroke-linecap="round" />
<circle cx="178" cy="282" r="8" fill="url(#bellyGrad-hatchling-healthy)" />
</g>
<g filter="url(#softShadow-hatchling-healthy)">
<circle cx="150" cy="165" r="65" fill="url(#furGrad-hatchling-healthy)" />
<ellipse cx="150" cy="195" rx="26" ry="18" fill="url(#bellyGrad-hatchling-healthy)" />
<path d="M 145 192 C 145 189, 155 189, 155 192 C 155 197, 152 199, 150 199 C 148 199, 145 197, 145 192 Z" fill="#1A1512" />
<g>
<ellipse cx="118" cy="165" rx="16" ry="20" fill="#FFFFFF" />
<ellipse cx="120" cy="165" rx="11" ry="14" fill="#1A1512" />
<circle cx="116" cy="159" r="4.5" fill="#FFFFFF" />
<ellipse cx="182" cy="165" rx="16" ry="20" fill="#FFFFFF" />
<ellipse cx="180" cy="165" rx="11" ry="14" fill="#1A1512" />
<circle cx="176" cy="159" r="4.5" fill="#FFFFFF" />
</g>
</g>
</svg>