<svg xmlns="http://www.w3.org/2000/svg" viewBox="0 0 300 380" width="180" height="228" role="img">
<title>commit-pet (juvenile, healthy)</title>
<defs><linearGradient id="furGrad-juvenile-healthy" x1="0%" y1="0%" x2="0%" y2="100%"><stop offset="0%" stop-color="#FF9333"/><stop offset="100%" stop-color="#D85C00"/></linearGradient>
<linearGradient id="bellyGrad-juvenile-healthy" x1="0%" y1="0%" x2="0%" y2="100%"><stop offset="0%" stop-color="#FFFFFF"/><stop offset="100%" stop-color="#FCE6CA"/></linearGradient>
<linearGradient id="earDark-juvenile-healthy" x1="0%" y1="0%" x2="0%" y2="100%"><stop offset="0%" stop-color="#332A24"/><stop offset="100%" stop-color="#1A1512"/></linearGradient>
<filter id="softShadow-juvenile-healthy" x="-20%" y="-20%" width="140%" height="140%"><feDropShadow dx="0" dy="6" stdDeviation="5" flood-color="#7A2D00" flood-opacity="0.3"/></filter>
<filter id="groundShadow-juvenile-healthy" x="-20%" y="-20%" width="140%" height="140%"><feDropShadow dx="0" dy="0" stdDeviation="8" flood-color="#000000" flood-opacity="0.5"/></filter><path id="tailShapeJuv-juvenile-healthy" d="M 160 250 C 220 300, 280 230, 230 150 C 215 175, 205 210, 155 215 Z" />
<clipPath id="tailClipJuv-juvenile-healthy"><use href="#tailShapeJuv-juvenile-healthy" /></clipPath></defs>
<ellipse cx="150" cy="330" rx="48" ry="8" fill="#111115" fill-opacity="0.3" filter="url(#groundShadow-juvenile-healthy)" />
<g filter="url(#softShadow-juvenile-healthy)">
<use href="#tailShapeJuv-juvenile-healthy" fill="url(#furGrad-juvenile-healthy)" />
<path d="M 195 140 Q 215 155 205 175 Q 230 160 225 190 Q 250 180 255 215 L 300 215 L 300 120 L 195 120 Z" fill="url(#bellyGrad-juvenile-healthy)" clip-path="url(#tailClipJuv-juvenile-healthy)" />
</g>
<g>
<path d="M 105 110 C 70 50, 85 30, 105 45 C 115 55, 120 70, 125 85 Z" fill="url(#furGrad-juvenile-healthy)" />
<path d="M 105 95 C 85 55, 95 45, 105 52 C 112 58, 115 72, 118 85 Z" fill="url(#earDark-juvenile-healthy)" />
<path d="M 195 110 C 230 50, 215 30, 195 45 C 185 55, 180 70, 175 85 Z" fill="url(#furGrad-juvenile-healthy)" />
<path d="M 195 95 C 215 55, 205 45, 195 52 C 188 58, 185 72, 182 85 Z" fill="url(#earDark-juvenile-healthy)" />
</g>
<g>
<ellipse cx="120" cy="308" rx="14" ry="20" fill="url(#furGrad-juvenile-healthy)" />
<ellipse cx="180" cy="308" rx="14" ry="20" fill="url(#furGrad-juvenile-healthy)" />
</g>
<g>
<ellipse cx="150" cy="245" rx="42" ry="65" fill="url(#furGrad-juvenile-healthy)" />
<ellipse cx="150" cy="250" rx="28" ry="48" fill="url(#bellyGrad-juvenile-healthy)" />
</g>
<g filter="url(#softShadow-juvenile-healthy)">
<path d="M 120 200 C 105 225, 105 250, 115 270" fill="none" stroke="url(#furGrad-juvenile-healthy)" stroke-width="18" stroke-linecap="round" />
<circle cx="115" cy="270" r="10" fill="url(#bellyGrad-juvenile-healthy)" />
<path d="M 180 200 C 195 225, 195 250, 185 270" fill="none" stroke="url(#furGrad-juvenile-healthy)" stroke-width="18" stroke-linecap="round" />
<circle cx="185" cy="270" r="10" fill="url(#bellyGrad-juvenile-healthy)" />
</g>
<g filter="url(#softShadow-juvenile-healthy)">
<circle cx="150" cy="135" r="55" fill="url(#furGrad-juvenile-healthy)" />
<path d="M 115 152 Q 95 148 75 152" fill="none" stroke="#C44A00" stroke-width="2" stroke-linecap="round" opacity="0.6" />
<path d="M 185 152 Q 205 148 225 152" fill="none" stroke="#C44A00" stroke-width="2" stroke-linecap="round" opacity="0.6" />
<ellipse cx="150" cy="160" rx="30" ry="22" fill="url(#bellyGrad-juvenile-healthy)" />
<path d="M 145 156 C 145 152, 155 152, 155 156 C 155 162, 152 164, 150 164 C 148 164, 145 162, 145 156 Z" fill="#1A1512" />
<g>
<ellipse cx="125" cy="132" rx="12" ry="15" fill="#FFFFFF" />
<ellipse cx="127" cy="132" rx="8" ry="11" fill="#1A1512" />
<circle cx="124" cy="127" r="3" fill="#FFFFFF" />
<ellipse cx="175" cy="132" rx="12" ry="15" fill="#FFFFFF" />
<ellipse cx="173" cy="132" rx="8" ry="11" fill="#1A1512" />
<circle cx="170" cy="127" r="3" fill="#FFFFFF" />
</g>
</g>
</svg>